<svg xmlns="http://www.w3.org/2000/svg" width="533.33" height="533.33"><path d="M317.119 340.347c-9.001 9.076-1.39 25.586-1.39 25.586l67.757 113.135s11.124 14.915 20.762 14.915c9.683 0 19.246-7.952 19.246-7.952l53.567-76.567s5.395-9.658 5.52-18.12c.193-12.034-17.947-15.33-17.947-15.33l-126.816-40.726c-.003.004-12.428-3.294-20.699 5.059zm-6.429-57.022c6.489 11.004 24.389 7.798 24.389 7.798l126.532-36.982s17.242-7.014 19.704-16.363c2.415-9.352-2.845-20.637-2.845-20.637l-60.468-71.225s-5.24-9.006-16.113-9.912c-11.989-1.021-19.366 13.489-19.366 13.489l-71.494 112.505c0 .001-6.32 11.205-.339 21.327zm-59.78-43.864c14.9-3.668 17.265-25.314 17.265-25.314l-1.013-180.14s-2.247-22.222-12.232-28.246c-15.661-9.501-20.303-4.541-24.79-3.876L125.09 40.918s-10.288 3.404-15.646 11.988c-7.651 12.163 7.775 29.972 7.775 29.972l109.189 148.831c-.001-.001 10.776 11.143 24.502 7.752zm-25.943 72.902c.376-13.894-16.682-22.239-16.682-22.239L95.37 233.079s-16.732-6.899-24.855-2.091c-6.224 3.677-11.738 10.333-12.277 16.216l-7.354 90.528s-1.103 15.685 2.963 22.821c5.758 10.128 24.703 3.074 24.703 3.074l131.82-29.137c5.121-3.442 14.101-3.751 14.597-22.127zm32.779 48.856c-11.315-5.811-24.856 6.224-24.856 6.224l-88.265 97.17s-11.012 14.858-8.212 23.982c2.639 8.552 7.007 12.802 13.187 15.797l88.642 27.982s10.747 2.231 18.884-.127c11.552-3.349 9.424-21.433 9.424-21.433l2.003-131.563c-.001.002-.452-12.672-10.807-18.032z"/></svg>